# xmcd
# 
# Track frame offsets:
#     150
#     34413
#     52240
#     72358
#     87564
#     102866
#     122527
#     141478
#     164891
#     180205
#     199561
#     216603
#     235116
#     247963
#     258992
#     278403
#     292655
#     306078
#     315813
#     333676
# 
# Disc length: 4664
# 
# Revision: 3
# Processed by: cddbd v1.5.2PL0 Copyright (c) Steve Scherf et al.
# Submitted via: fre:ac v1.0.31
# 
DISCID=29123614
DTITLE=0 - X - Mas Special  2004
DYEAR=0
DGENRE=
TTITLE0=A TEENS - Megamix (Long)
TTITLE1=Dr. Alban - Sing Hallelujah
TTITLE2=Joachim Witt - Goldener Reiter
TTITLE3=Gottlieb Wendehals - Polonäse Blankenese
TTITLE4=Gebrüder Blattschuss - Kreuzberger Nächte
TTITLE5=Peter Cornelius - Du entschuldige i kenn' di
TTITLE6=Hermes House Band - Country Roads
TTITLE7=Marius Müller Westernhagen - Mit 18
TTITLE8=John Paul Young - Love Is In The Air
TTITLE9=Die Ärzte - Männer sind Schweine
TTITLE10=Ina Deter Band - Neue Männer braucht das Land
TTITLE11=Münchener Freiheit - Ohne Dich
TTITLE12=Marius Müller Westernhagen - Freiheit (Live)
TTITLE13=Die 3 Besoffkis - Gruppensex im Altersheim
TTITLE14=Gala - Free From Desire
TTITLE15=Die Höhner - Viva Colonia
TTITLE16=Truck Stop - Der wilde, wilde Westen
TTITLE17=Das Kleine Arschloch - Sei nicht traurig
TTITLE18=Die 3 von der Baustelle - Auf einem Bein (kann man nicht steh'n)
TTITLE19=Frank Zander - Nur nach Hause
EXTD=
EXTT0=
EXTT1=
EXTT2=
EXTT3=
EXTT4=
EXTT5=
EXTT6=
EXTT7=
EXTT8=
EXTT9=
EXTT10=
EXTT11=
EXTT12=
EXTT13=
EXTT14=
EXTT15=
EXTT16=
EXTT17=
EXTT18=
EXTT19=
PLAYORDER=
